<mxfile host="app.diagrams.net" agent="Mozilla/5.0 (Windows NT 10.0; Win64; x64) AppleWebKit/537.36 (KHTML, like Gecko) Chrome/136.0.0.0 Safari/537.36" version="24.9.3">
  <diagram name="P치gina-1" id="8u7MjMs8oXHKAICYFXII">
    <mxGraphModel dx="2261" dy="1941" grid="1" gridSize="10" guides="1" tooltips="1" connect="1" arrows="1" fold="1" page="1" pageScale="1" pageWidth="827" pageHeight="1169" math="0" shadow="0">
      <root>
        <mxCell id="0" />
        <mxCell id="1" parent="0" />
        <mxCell id="_jayefiMdgV2kIiH0nPn-1" value="HealtMed.API" style="rounded=1;whiteSpace=wrap;html=1;" vertex="1" parent="1">
          <mxGeometry x="354" y="110" width="120" height="60" as="geometry" />
        </mxCell>
        <mxCell id="_jayefiMdgV2kIiH0nPn-26" style="edgeStyle=orthogonalEdgeStyle;rounded=0;orthogonalLoop=1;jettySize=auto;html=1;entryX=0.5;entryY=0;entryDx=0;entryDy=0;" edge="1" parent="1" source="_jayefiMdgV2kIiH0nPn-9" target="_jayefiMdgV2kIiH0nPn-24">
          <mxGeometry relative="1" as="geometry" />
        </mxCell>
        <mxCell id="_jayefiMdgV2kIiH0nPn-9" value="" style="shape=image;verticalLabelPosition=bottom;labelBackgroundColor=default;verticalAlign=top;aspect=fixed;imageAspect=0;image=https://cdn.iconscout.com/icon/free/png-256/free-rabbitmq-icon-download-in-svg-png-gif-file-formats--logo-brand-world-logos-vol-1-pack-icons-282296.png;" vertex="1" parent="1">
          <mxGeometry x="320" y="240" width="60" height="60" as="geometry" />
        </mxCell>
        <mxCell id="_jayefiMdgV2kIiH0nPn-27" style="edgeStyle=orthogonalEdgeStyle;rounded=0;orthogonalLoop=1;jettySize=auto;html=1;entryX=0.5;entryY=0;entryDx=0;entryDy=0;" edge="1" parent="1" source="_jayefiMdgV2kIiH0nPn-10" target="_jayefiMdgV2kIiH0nPn-25">
          <mxGeometry relative="1" as="geometry" />
        </mxCell>
        <mxCell id="_jayefiMdgV2kIiH0nPn-10" value="" style="shape=image;verticalLabelPosition=bottom;labelBackgroundColor=default;verticalAlign=top;aspect=fixed;imageAspect=0;image=https://cdn.iconscout.com/icon/free/png-256/free-rabbitmq-icon-download-in-svg-png-gif-file-formats--logo-brand-world-logos-vol-1-pack-icons-282296.png;" vertex="1" parent="1">
          <mxGeometry x="460" y="240" width="60" height="60" as="geometry" />
        </mxCell>
        <mxCell id="_jayefiMdgV2kIiH0nPn-13" value="HealthMed.AgendaConsumer" style="rounded=1;whiteSpace=wrap;html=1;" vertex="1" parent="1">
          <mxGeometry x="170" y="410" width="180" height="60" as="geometry" />
        </mxCell>
        <mxCell id="_jayefiMdgV2kIiH0nPn-14" value="HealthMed.ConsultaAgendadaConsumer" style="rounded=1;whiteSpace=wrap;html=1;" vertex="1" parent="1">
          <mxGeometry x="450" y="410" width="240" height="60" as="geometry" />
        </mxCell>
        <mxCell id="_jayefiMdgV2kIiH0nPn-15" value="HealthMed.AgendaConsumer" style="rounded=1;whiteSpace=wrap;html=1;" vertex="1" parent="1">
          <mxGeometry x="170" y="480" width="180" height="60" as="geometry" />
        </mxCell>
        <mxCell id="_jayefiMdgV2kIiH0nPn-16" value="HealthMed.AgendaConsumer" style="rounded=1;whiteSpace=wrap;html=1;" vertex="1" parent="1">
          <mxGeometry x="170" y="550" width="180" height="60" as="geometry" />
        </mxCell>
        <mxCell id="_jayefiMdgV2kIiH0nPn-17" value="HealthMed.AgendaConsumer" style="rounded=1;whiteSpace=wrap;html=1;" vertex="1" parent="1">
          <mxGeometry x="170" y="620" width="180" height="60" as="geometry" />
        </mxCell>
        <mxCell id="_jayefiMdgV2kIiH0nPn-18" value="HealthMed.AgendaConsumer" style="rounded=1;whiteSpace=wrap;html=1;" vertex="1" parent="1">
          <mxGeometry x="170" y="690" width="180" height="60" as="geometry" />
        </mxCell>
        <mxCell id="_jayefiMdgV2kIiH0nPn-19" value="HealthMed.ConsultaAgendadaConsumer" style="rounded=1;whiteSpace=wrap;html=1;" vertex="1" parent="1">
          <mxGeometry x="450" y="480" width="240" height="60" as="geometry" />
        </mxCell>
        <mxCell id="_jayefiMdgV2kIiH0nPn-20" value="HealthMed.ConsultaAgendadaConsumer" style="rounded=1;whiteSpace=wrap;html=1;" vertex="1" parent="1">
          <mxGeometry x="450" y="550" width="240" height="60" as="geometry" />
        </mxCell>
        <mxCell id="_jayefiMdgV2kIiH0nPn-21" value="HealthMed.ConsultaAgendadaConsumer" style="rounded=1;whiteSpace=wrap;html=1;" vertex="1" parent="1">
          <mxGeometry x="450" y="620" width="240" height="60" as="geometry" />
        </mxCell>
        <mxCell id="_jayefiMdgV2kIiH0nPn-22" value="HealthMed.ConsultaAgendadaConsumer" style="rounded=1;whiteSpace=wrap;html=1;" vertex="1" parent="1">
          <mxGeometry x="450" y="690" width="240" height="60" as="geometry" />
        </mxCell>
        <mxCell id="_jayefiMdgV2kIiH0nPn-24" value="Pods escal치veis" style="swimlane;whiteSpace=wrap;html=1;" vertex="1" parent="1">
          <mxGeometry x="130" y="360" width="250" height="410" as="geometry" />
        </mxCell>
        <mxCell id="_jayefiMdgV2kIiH0nPn-25" value="Pods escal치veis" style="swimlane;whiteSpace=wrap;html=1;" vertex="1" parent="1">
          <mxGeometry x="430" y="360" width="280" height="410" as="geometry" />
        </mxCell>
        <mxCell id="_jayefiMdgV2kIiH0nPn-28" value="SQL" style="shape=cylinder3;whiteSpace=wrap;html=1;boundedLbl=1;backgroundOutline=1;size=15;" vertex="1" parent="1">
          <mxGeometry x="-160" y="390" width="60" height="80" as="geometry" />
        </mxCell>
        <mxCell id="_jayefiMdgV2kIiH0nPn-29" style="edgeStyle=orthogonalEdgeStyle;rounded=0;orthogonalLoop=1;jettySize=auto;html=1;entryX=0.5;entryY=1;entryDx=0;entryDy=0;entryPerimeter=0;" edge="1" parent="1" source="_jayefiMdgV2kIiH0nPn-24" target="_jayefiMdgV2kIiH0nPn-28">
          <mxGeometry relative="1" as="geometry" />
        </mxCell>
        <mxCell id="_jayefiMdgV2kIiH0nPn-30" style="edgeStyle=orthogonalEdgeStyle;rounded=0;orthogonalLoop=1;jettySize=auto;html=1;entryX=0.5;entryY=1;entryDx=0;entryDy=0;entryPerimeter=0;" edge="1" parent="1" source="_jayefiMdgV2kIiH0nPn-25" target="_jayefiMdgV2kIiH0nPn-28">
          <mxGeometry relative="1" as="geometry">
            <Array as="points">
              <mxPoint x="570" y="810" />
              <mxPoint x="-130" y="810" />
            </Array>
          </mxGeometry>
        </mxCell>
        <mxCell id="_jayefiMdgV2kIiH0nPn-32" value="Cache" style="image;sketch=0;aspect=fixed;html=1;points=[];align=center;fontSize=12;image=img/lib/mscae/Cache_Redis_Product.svg;" vertex="1" parent="1">
          <mxGeometry x="-10" y="258" width="50" height="42" as="geometry" />
        </mxCell>
        <mxCell id="_jayefiMdgV2kIiH0nPn-35" value="HealtMed.API" style="rounded=1;whiteSpace=wrap;html=1;" vertex="1" parent="1">
          <mxGeometry x="354" y="40" width="120" height="60" as="geometry" />
        </mxCell>
        <mxCell id="_jayefiMdgV2kIiH0nPn-36" value="HealtMed.API" style="rounded=1;whiteSpace=wrap;html=1;" vertex="1" parent="1">
          <mxGeometry x="354" y="-30" width="120" height="60" as="geometry" />
        </mxCell>
        <mxCell id="_jayefiMdgV2kIiH0nPn-37" value="HealtMed.API" style="rounded=1;whiteSpace=wrap;html=1;" vertex="1" parent="1">
          <mxGeometry x="354" y="-100" width="120" height="60" as="geometry" />
        </mxCell>
        <mxCell id="_jayefiMdgV2kIiH0nPn-38" value="HealtMed.API" style="rounded=1;whiteSpace=wrap;html=1;" vertex="1" parent="1">
          <mxGeometry x="354" y="-170" width="120" height="60" as="geometry" />
        </mxCell>
        <mxCell id="_jayefiMdgV2kIiH0nPn-40" style="edgeStyle=orthogonalEdgeStyle;rounded=0;orthogonalLoop=1;jettySize=auto;html=1;entryX=0.5;entryY=0;entryDx=0;entryDy=0;" edge="1" parent="1" source="_jayefiMdgV2kIiH0nPn-39" target="_jayefiMdgV2kIiH0nPn-9">
          <mxGeometry relative="1" as="geometry" />
        </mxCell>
        <mxCell id="_jayefiMdgV2kIiH0nPn-42" style="edgeStyle=orthogonalEdgeStyle;rounded=0;orthogonalLoop=1;jettySize=auto;html=1;exitX=0;exitY=0.75;exitDx=0;exitDy=0;" edge="1" parent="1" source="_jayefiMdgV2kIiH0nPn-39" target="_jayefiMdgV2kIiH0nPn-32">
          <mxGeometry relative="1" as="geometry" />
        </mxCell>
        <mxCell id="_jayefiMdgV2kIiH0nPn-39" value="Pods escal치veis" style="swimlane;whiteSpace=wrap;html=1;" vertex="1" parent="1">
          <mxGeometry x="310" y="-210" width="200" height="400" as="geometry" />
        </mxCell>
        <mxCell id="_jayefiMdgV2kIiH0nPn-41" style="edgeStyle=orthogonalEdgeStyle;rounded=0;orthogonalLoop=1;jettySize=auto;html=1;entryX=0.383;entryY=0.067;entryDx=0;entryDy=0;entryPerimeter=0;" edge="1" parent="1" source="_jayefiMdgV2kIiH0nPn-39" target="_jayefiMdgV2kIiH0nPn-10">
          <mxGeometry relative="1" as="geometry" />
        </mxCell>
        <mxCell id="_jayefiMdgV2kIiH0nPn-43" style="edgeStyle=orthogonalEdgeStyle;rounded=0;orthogonalLoop=1;jettySize=auto;html=1;entryX=0.5;entryY=0;entryDx=0;entryDy=0;entryPerimeter=0;" edge="1" parent="1" source="_jayefiMdgV2kIiH0nPn-39" target="_jayefiMdgV2kIiH0nPn-28">
          <mxGeometry relative="1" as="geometry" />
        </mxCell>
        <mxCell id="_jayefiMdgV2kIiH0nPn-44" value="Load Balancer" style="shape=rect;fillColor=#1192E8;aspect=fixed;resizable=0;labelPosition=center;verticalLabelPosition=bottom;align=center;verticalAlign=top;strokeColor=none;fontSize=14;" vertex="1" parent="1">
          <mxGeometry x="390" y="-320" width="48" height="48" as="geometry" />
        </mxCell>
        <mxCell id="_jayefiMdgV2kIiH0nPn-45" value="" style="fillColor=#ffffff;strokeColor=none;dashed=0;outlineConnect=0;html=1;labelPosition=center;verticalLabelPosition=bottom;verticalAlign=top;part=1;movable=0;resizable=0;rotatable=0;shape=mxgraph.ibm_cloud.load-balancer--vpc" vertex="1" parent="_jayefiMdgV2kIiH0nPn-44">
          <mxGeometry width="24" height="24" relative="1" as="geometry">
            <mxPoint x="12" y="12" as="offset" />
          </mxGeometry>
        </mxCell>
        <mxCell id="_jayefiMdgV2kIiH0nPn-47" style="edgeStyle=orthogonalEdgeStyle;rounded=0;orthogonalLoop=1;jettySize=auto;html=1;entryX=0.535;entryY=0.005;entryDx=0;entryDy=0;entryPerimeter=0;" edge="1" parent="1" source="_jayefiMdgV2kIiH0nPn-45" target="_jayefiMdgV2kIiH0nPn-39">
          <mxGeometry relative="1" as="geometry" />
        </mxCell>
        <mxCell id="_jayefiMdgV2kIiH0nPn-48" value="Para atender um n칰mero de 20 mil usu치rios simult칙neos optei por trabalhar com pods escal치veis dentro do kubernets, na API temos um load balancer para controlar as requisi칞칫es e distribuir de uma maneira melhor entre elas, e os servi칞os de cadastros s칚o feitos de maneira ass칤ncrona utilizando RabbitMq, tendo seus consumidores escal치veis no kubernets." style="text;html=1;align=center;verticalAlign=middle;whiteSpace=wrap;rounded=0;" vertex="1" parent="1">
          <mxGeometry x="-210" y="-330" width="310" height="120" as="geometry" />
        </mxCell>
        <mxCell id="_jayefiMdgV2kIiH0nPn-49" value="" style="swimlane;startSize=0;" vertex="1" parent="1">
          <mxGeometry x="-220" y="-370" width="350" height="200" as="geometry" />
        </mxCell>
        <mxCell id="_jayefiMdgV2kIiH0nPn-50" value="O banco de dados respons치vel por armazenar os dados de consultas e dos usu치rios, ser치 um SQL Server simples, tendo em vista que 20 mil usu치rios simult칙neos n칚o exigiram nenhuma estrat칠gia de escalabilidade do banco de dados&amp;nbsp;" style="text;html=1;align=center;verticalAlign=middle;whiteSpace=wrap;rounded=0;" vertex="1" parent="1">
          <mxGeometry x="-430" y="320" width="210" height="140" as="geometry" />
        </mxCell>
        <mxCell id="_jayefiMdgV2kIiH0nPn-51" value="" style="swimlane;startSize=0;" vertex="1" parent="1">
          <mxGeometry x="-440" y="290" width="240" height="200" as="geometry" />
        </mxCell>
        <mxCell id="_jayefiMdgV2kIiH0nPn-52" value="O Redis esta sendo utilizado para diminuirmos um pouco a carga no SQL para dados que n칚o tem altera칞칫es durante o dia" style="text;html=1;align=center;verticalAlign=middle;whiteSpace=wrap;rounded=0;" vertex="1" parent="1">
          <mxGeometry x="80" y="140" width="140" height="110" as="geometry" />
        </mxCell>
        <mxCell id="_jayefiMdgV2kIiH0nPn-53" value="" style="swimlane;startSize=0;" vertex="1" parent="1">
          <mxGeometry x="70" y="120" width="160" height="150" as="geometry" />
        </mxCell>
        <mxCell id="_jayefiMdgV2kIiH0nPn-54" value="O Broker escolhido foi o rabbitmq na configura칞칚o FIFO" style="text;html=1;align=center;verticalAlign=middle;whiteSpace=wrap;rounded=0;" vertex="1" parent="1">
          <mxGeometry x="630" y="160" width="100" height="90" as="geometry" />
        </mxCell>
        <mxCell id="_jayefiMdgV2kIiH0nPn-55" value="Vertical Container" style="swimlane;whiteSpace=wrap;html=1;" vertex="1" parent="1">
          <mxGeometry x="610" y="140" width="140" height="110" as="geometry" />
        </mxCell>
      </root>
    </mxGraphModel>
  </diagram>
</mxfile>
